<svg width="40" height="40" viewBox="0 0 40 40" fill="none" xmlns="http://www.w3.org/2000/svg">
<g filter="url(#filter0_i_450_155)">
<circle cx="20" cy="20" r="20" fill="black"/>
</g>
<path fill-rule="evenodd" clip-rule="evenodd" d="M17.7071 14.2929C18.0976 14.6834 18.0976 15.3166 17.7071 15.7071L13.4142 20L17.7071 24.2929C18.0976 24.6834 18.0976 25.3166 17.7071 25.7071C17.3166 26.0976 16.6834 26.0976 16.2929 25.7071L11.2929 20.7071C10.9024 20.3166 10.9024 19.6834 11.2929 19.2929L16.2929 14.2929C16.6834 13.9024 17.3166 13.9024 17.7071 14.2929Z" fill="#10A554"/>
<path fill-rule="evenodd" clip-rule="evenodd" d="M22.2929 14.2929C22.6834 13.9024 23.3166 13.9024 23.7071 14.2929L28.7071 19.2929C29.0976 19.6834 29.0976 20.3166 28.7071 20.7071L23.7071 25.7071C23.3166 26.0976 22.6834 26.0976 22.2929 25.7071C21.9024 25.3166 21.9024 24.6834 22.2929 24.2929L26.5858 20L22.2929 15.7071C21.9024 15.3166 21.9024 14.6834 22.2929 14.2929Z" fill="#10A554"/>
<path fill-rule="evenodd" clip-rule="evenodd" d="M17.7071 14.2929C18.0976 14.6834 18.0976 15.3166 17.7071 15.7071L13.4142 20L17.7071 24.2929C18.0976 24.6834 18.0976 25.3166 17.7071 25.7071C17.3166 26.0976 16.6834 26.0976 16.2929 25.7071L11.2929 20.7071C10.9024 20.3166 10.9024 19.6834 11.2929 19.2929L16.2929 14.2929C16.6834 13.9024 17.3166 13.9024 17.7071 14.2929Z" stroke="#10A554" stroke-width="0.5" stroke-linecap="round" stroke-linejoin="round"/>
<path fill-rule="evenodd" clip-rule="evenodd" d="M22.2929 14.2929C22.6834 13.9024 23.3166 13.9024 23.7071 14.2929L28.7071 19.2929C29.0976 19.6834 29.0976 20.3166 28.7071 20.7071L23.7071 25.7071C23.3166 26.0976 22.6834 26.0976 22.2929 25.7071C21.9024 25.3166 21.9024 24.6834 22.2929 24.2929L26.5858 20L22.2929 15.7071C21.9024 15.3166 21.9024 14.6834 22.2929 14.2929Z" stroke="#10A554" stroke-width="0.5" stroke-linecap="round" stroke-linejoin="round"/>
<defs>
<filter id="filter0_i_450_155" x="0" y="0" width="40" height="40" filterUnits="userSpaceOnUse" color-interpolation-filters="sRGB">
<feFlood flood-opacity="0" result="BackgroundImageFix"/>
<feBlend mode="normal" in="SourceGraphic" in2="BackgroundImageFix" result="shape"/>
<feColorMatrix in="SourceAlpha" type="matrix" values="0 0 0 0 0 0 0 0 0 0 0 0 0 0 0 0 0 0 127 0" result="hardAlpha"/>
<feOffset/>
<feGaussianBlur stdDeviation="6.5"/>
<feComposite in2="hardAlpha" operator="arithmetic" k2="-1" k3="1"/>
<feColorMatrix type="matrix" values="0 0 0 0 0.0627451 0 0 0 0 0.647059 0 0 0 0 0.329412 0 0 0 1 0"/>
<feBlend mode="normal" in2="shape" result="effect1_innerShadow_450_155"/>
</filter>
</defs>
</svg>
