<svg width="50" height="50" viewBox="0 0 50 50" fill="none" xmlns="http://www.w3.org/2000/svg">
<path d="M18.4958 8.5H15.6757V12.1885H18.4958V8.5Z" fill="url(#paint0_linear_450_182)"/>
<path d="M23.7719 8.5H20.9518V12.1885H23.7719V8.5Z" fill="url(#paint1_linear_450_182)"/>
<path d="M29.0482 8.5H26.2281V12.1885H29.0482V8.5Z" fill="url(#paint2_linear_450_182)"/>
<path d="M34.3249 8.5H31.5048V12.1885H34.3249V8.5Z" fill="url(#paint3_linear_450_182)"/>
<path d="M18.4958 40.8114H15.6757V44.4999H18.4958V40.8114Z" fill="url(#paint4_linear_450_182)"/>
<path d="M23.7719 40.8117H20.9518V44.5002H23.7719V40.8117Z" fill="url(#paint5_linear_450_182)"/>
<path d="M29.0482 40.8117H26.2281V44.5002H29.0482V40.8117Z" fill="url(#paint6_linear_450_182)"/>
<path d="M34.3249 40.8117H31.5048V44.5002H34.3249V40.8117Z" fill="url(#paint7_linear_450_182)"/>
<path d="M43.0003 20.0039V17.1838H39.3118V20.0039H43.0003Z" fill="url(#paint8_linear_450_182)"/>
<path d="M43.0003 25.2802V22.4601H39.3118V25.2802H43.0003Z" fill="url(#paint9_linear_450_182)"/>
<path d="M43.0003 30.5565V27.7363H39.3118V30.5565H43.0003Z" fill="url(#paint10_linear_450_182)"/>
<path d="M43.0003 35.8331V33.013H39.3118V35.8331H43.0003Z" fill="url(#paint11_linear_450_182)"/>
<path d="M10.6885 20.0039V17.1838H7V20.0039H10.6885Z" fill="url(#paint12_linear_450_182)"/>
<path d="M10.6885 25.2802V22.4601H7.00001V25.2802H10.6885Z" fill="url(#paint13_linear_450_182)"/>
<path d="M10.6885 30.5565V27.7363H7V30.5565H10.6885Z" fill="url(#paint14_linear_450_182)"/>
<path d="M10.6885 35.8331V33.013H7.00001V35.8331H10.6885Z" fill="url(#paint15_linear_450_182)"/>
<path d="M34.8457 14.504H14.2199C13.2688 14.504 12.4997 15.2731 12.4997 16.2242V37.3544C12.4997 38.3055 13.2688 39.0746 14.2199 39.0746H34.8457C35.7968 39.0746 36.5659 38.3055 36.5659 37.3544V16.2242C36.5659 15.2731 35.7968 14.504 34.8457 14.504ZM30.4956 33.0043H18.4955V20.5743H30.4956V33.0043Z" fill="url(#paint16_linear_450_182)"/>
<defs>
<linearGradient id="paint0_linear_450_182" x1="14.7887" y1="20.1449" x2="33.4937" y2="44.5002" gradientUnits="userSpaceOnUse">
<stop stop-color="#03A350"/>
<stop offset="1" stop-color="#2D5131"/>
</linearGradient>
<linearGradient id="paint1_linear_450_182" x1="14.7887" y1="20.1449" x2="33.4937" y2="44.5002" gradientUnits="userSpaceOnUse">
<stop stop-color="#03A350"/>
<stop offset="1" stop-color="#2D5131"/>
</linearGradient>
<linearGradient id="paint2_linear_450_182" x1="14.7887" y1="20.1449" x2="33.4937" y2="44.5002" gradientUnits="userSpaceOnUse">
<stop stop-color="#03A350"/>
<stop offset="1" stop-color="#2D5131"/>
</linearGradient>
<linearGradient id="paint3_linear_450_182" x1="14.7887" y1="20.1449" x2="33.4937" y2="44.5002" gradientUnits="userSpaceOnUse">
<stop stop-color="#03A350"/>
<stop offset="1" stop-color="#2D5131"/>
</linearGradient>
<linearGradient id="paint4_linear_450_182" x1="14.7887" y1="20.1449" x2="33.4937" y2="44.5002" gradientUnits="userSpaceOnUse">
<stop stop-color="#03A350"/>
<stop offset="1" stop-color="#2D5131"/>
</linearGradient>
<linearGradient id="paint5_linear_450_182" x1="14.7887" y1="20.1449" x2="33.4937" y2="44.5002" gradientUnits="userSpaceOnUse">
<stop stop-color="#03A350"/>
<stop offset="1" stop-color="#2D5131"/>
</linearGradient>
<linearGradient id="paint6_linear_450_182" x1="14.7887" y1="20.1449" x2="33.4937" y2="44.5002" gradientUnits="userSpaceOnUse">
<stop stop-color="#03A350"/>
<stop offset="1" stop-color="#2D5131"/>
</linearGradient>
<linearGradient id="paint7_linear_450_182" x1="14.7887" y1="20.1449" x2="33.4937" y2="44.5002" gradientUnits="userSpaceOnUse">
<stop stop-color="#03A350"/>
<stop offset="1" stop-color="#2D5131"/>
</linearGradient>
<linearGradient id="paint8_linear_450_182" x1="14.7887" y1="20.1449" x2="33.4937" y2="44.5002" gradientUnits="userSpaceOnUse">
<stop stop-color="#03A350"/>
<stop offset="1" stop-color="#2D5131"/>
</linearGradient>
<linearGradient id="paint9_linear_450_182" x1="14.7887" y1="20.1449" x2="33.4937" y2="44.5002" gradientUnits="userSpaceOnUse">
<stop stop-color="#03A350"/>
<stop offset="1" stop-color="#2D5131"/>
</linearGradient>
<linearGradient id="paint10_linear_450_182" x1="14.7887" y1="20.1449" x2="33.4937" y2="44.5002" gradientUnits="userSpaceOnUse">
<stop stop-color="#03A350"/>
<stop offset="1" stop-color="#2D5131"/>
</linearGradient>
<linearGradient id="paint11_linear_450_182" x1="14.7887" y1="20.1449" x2="33.4937" y2="44.5002" gradientUnits="userSpaceOnUse">
<stop stop-color="#03A350"/>
<stop offset="1" stop-color="#2D5131"/>
</linearGradient>
<linearGradient id="paint12_linear_450_182" x1="14.7887" y1="20.1449" x2="33.4937" y2="44.5002" gradientUnits="userSpaceOnUse">
<stop stop-color="#03A350"/>
<stop offset="1" stop-color="#2D5131"/>
</linearGradient>
<linearGradient id="paint13_linear_450_182" x1="14.7887" y1="20.1449" x2="33.4937" y2="44.5002" gradientUnits="userSpaceOnUse">
<stop stop-color="#03A350"/>
<stop offset="1" stop-color="#2D5131"/>
</linearGradient>
<linearGradient id="paint14_linear_450_182" x1="14.7887" y1="20.1449" x2="33.4937" y2="44.5002" gradientUnits="userSpaceOnUse">
<stop stop-color="#03A350"/>
<stop offset="1" stop-color="#2D5131"/>
</linearGradient>
<linearGradient id="paint15_linear_450_182" x1="14.7887" y1="20.1449" x2="33.4937" y2="44.5002" gradientUnits="userSpaceOnUse">
<stop stop-color="#03A350"/>
<stop offset="1" stop-color="#2D5131"/>
</linearGradient>
<linearGradient id="paint16_linear_450_182" x1="14.7887" y1="20.1449" x2="33.4937" y2="44.5002" gradientUnits="userSpaceOnUse">
<stop stop-color="#03A350"/>
<stop offset="1" stop-color="#2D5131"/>
</linearGradient>
</defs>
</svg>
