<svg width="58" height="13" viewBox="0 0 58 13" fill="none" xmlns="http://www.w3.org/2000/svg">
<path d="M50.9596 1.62565C50.9596 1.3265 51.2021 1.08398 51.5013 1.08398C51.8005 1.08398 52.043 1.3265 52.043 1.62565C52.043 3.35269 52.4053 4.47244 53.0625 5.1661C53.7134 5.85315 54.7567 6.22982 56.3763 6.22982C56.6755 6.22982 56.918 6.47233 56.918 6.77148C56.918 7.07064 56.6755 7.31315 56.3763 7.31315C54.7567 7.31315 53.7134 7.68982 53.0625 8.37687C52.4053 9.07053 52.043 10.1903 52.043 11.9173C52.043 12.2165 51.8005 12.459 51.5013 12.459C51.2021 12.459 50.9596 12.2165 50.9596 11.9173C50.9596 10.1903 50.5973 9.07053 49.9401 8.37687C49.2892 7.68982 48.2459 7.31315 46.6263 7.31315C46.3271 7.31315 46.0846 7.07064 46.0846 6.77148C46.0846 6.47233 46.3271 6.22982 46.6263 6.22982C48.2459 6.22982 49.2892 5.85315 49.9401 5.1661C50.5973 4.47244 50.9596 3.35269 50.9596 1.62565Z" fill="#DDDDDD"/>
<line y1="-0.5" x2="44" y2="-0.5" transform="matrix(-1 0 0 1 44 7.19922)" stroke="url(#paint0_linear_444_276)"/>
<defs>
<linearGradient id="paint0_linear_444_276" x1="0" y1="0.5" x2="44" y2="0.5" gradientUnits="userSpaceOnUse">
<stop stop-color="#DDDDDD" stop-opacity="0.5"/>
<stop offset="1" stop-color="#1A2D1E" stop-opacity="0"/>
</linearGradient>
</defs>
</svg>
