<svg width="124" height="40" viewBox="0 0 124 40" fill="none" xmlns="http://www.w3.org/2000/svg">
<rect y="5" width="30" height="30" rx="15" fill="#10A554"/>
<path d="M22.0091 15.4932H16.1057V18.0416C16.6924 17.6993 17.3646 17.5282 18.1224 17.5282C18.9902 17.5282 19.6991 17.7971 20.2491 18.3349C20.8113 18.8727 21.0924 19.6182 21.0924 20.5716C21.0924 21.1093 20.9885 21.7082 20.7807 22.3682C20.5852 23.0282 20.2613 23.7005 19.8091 24.3849L17.6641 23.1932C17.9452 22.8143 18.1774 22.4232 18.3607 22.0199C18.5441 21.6166 18.6357 21.201 18.6357 20.7732C18.6357 20.321 18.538 20.0032 18.3424 19.8199C18.1591 19.6366 17.9146 19.5449 17.6091 19.5449C17.328 19.5449 16.7841 19.8016 16.7841 19.8016C16.7841 19.8016 15.9263 20.156 15.7307 20.3516V24.8799H13.6491V22.5516C13.2457 22.7838 12.8363 22.961 12.4207 23.0832C12.0174 23.2055 11.5468 23.2666 11.0091 23.2666C10.3368 23.2666 9.71962 23.1443 9.1574 22.8999C8.6074 22.6432 8.1674 22.2705 7.8374 21.7816C7.5074 21.2927 7.3424 20.6816 7.3424 19.9482C7.3424 19.2638 7.5074 18.6771 7.8374 18.1882C8.1674 17.6871 8.62573 17.3021 9.2124 17.0332C9.79906 16.7521 10.4774 16.6116 11.2474 16.6116C11.5896 16.6116 11.9318 16.6238 12.2741 16.6482C12.6285 16.6727 12.9035 16.7155 13.0991 16.7766L12.9157 18.8116C12.5246 18.7138 12.0907 18.6649 11.6141 18.6649C11.0396 18.6649 10.5935 18.781 10.2757 19.0132C9.95795 19.2332 9.79906 19.5449 9.79906 19.9482C9.79906 20.4371 9.95184 20.7732 10.2574 20.9566C10.563 21.1399 10.893 21.2316 11.2474 21.2316C11.7607 21.2316 12.213 21.1155 12.6041 20.8832C13.0074 20.651 13.3557 20.3821 13.6491 20.0766V15.4932H6.66406V13.4766H22.0091V15.4932Z" fill="white"/>
<path d="M18.3924 29.1516C18.0746 29.3105 17.6957 29.4571 17.2557 29.5916C16.8035 29.726 16.2657 29.7932 15.6424 29.7932C15.0313 29.7932 14.4874 29.6771 14.0107 29.4449C13.534 29.2249 13.1613 28.9132 12.8924 28.5099C12.6113 28.1188 12.4707 27.6605 12.4707 27.1349C12.4707 26.2549 12.7824 25.5521 13.4057 25.0266C14.0168 24.5132 14.5218 24.2199 15.6707 24.1466L15.8907 26.0349C15.2674 26.0716 15.2146 26.1877 14.9824 26.3832C14.7502 26.591 14.6341 26.8293 14.6341 27.0982C14.6341 27.6605 15.0068 27.9416 15.7524 27.9416C16.0335 27.9416 16.3207 27.8988 16.6141 27.8132C16.9074 27.7277 17.2618 27.581 17.6774 27.3732L18.3924 29.1516Z" fill="white"/>
<path d="M43.3691 26H40.1074V13.8027H43.3691V19.2031L47.9297 13.8027H51.4453V14.0176L47.0605 19.2422L51.6406 25.7754V26H47.9688L44.9414 21.8008L43.3691 23.6758V26ZM56.0645 20.0625H57.9004C58.5775 20.0625 59.0983 19.916 59.4629 19.623C59.834 19.3301 60.0195 18.9069 60.0195 18.3535C60.0195 17.8001 59.834 17.3704 59.4629 17.0645C59.0983 16.752 58.5775 16.5957 57.9004 16.5957H56.0645V20.0625ZM63.6426 26H60.1562L57.7246 22.6016H56.0645V26H52.8027V13.8027H57.8613C59.5801 13.8027 60.9049 14.1999 61.8359 14.9941C62.7734 15.7819 63.2422 16.9049 63.2422 18.3633C63.2422 20.1471 62.4674 21.3809 60.918 22.0645L63.6426 25.7363V26ZM75.6934 13.8027V20.1797C75.6934 22.2044 75.2344 23.7116 74.3164 24.7012C73.3984 25.6842 72.002 26.1758 70.127 26.1758C68.252 26.1758 66.8555 25.681 65.9375 24.6914C65.0195 23.7018 64.5605 22.1979 64.5605 20.1797V13.8027H67.8125V20.1797C67.8125 22.2305 68.584 23.2559 70.127 23.2559C71.6699 23.2559 72.4382 22.2305 72.4316 20.1797V13.8027H75.6934ZM87.5098 16.7617H83.7305V26H80.4688V16.7617H76.709V13.8027H87.5098V16.7617ZM91.9824 20.0625H93.8184C94.4954 20.0625 95.0163 19.916 95.3809 19.623C95.752 19.3301 95.9375 18.9069 95.9375 18.3535C95.9375 17.8001 95.752 17.3704 95.3809 17.0645C95.0163 16.752 94.4954 16.5957 93.8184 16.5957H91.9824V20.0625ZM99.5605 26H96.0742L93.6426 22.6016H91.9824V26H88.7207V13.8027H93.7793C95.498 13.8027 96.8229 14.1999 97.7539 14.9941C98.6914 15.7819 99.1602 16.9049 99.1602 18.3633C99.1602 20.1471 98.3854 21.3809 96.8359 22.0645L99.5605 25.7363V26ZM103.955 26H100.693V13.8027H103.955V26ZM117.461 26L117.314 19.5645V18.998L114.453 26H112.5L109.658 18.998V19.4766L109.502 26H106.221L106.699 13.8027H110.342L113.174 20.4434C113.278 20.7233 113.379 21.0293 113.477 21.3613C113.568 21.0293 113.669 20.7233 113.779 20.4434L116.621 13.8027H120.254L120.732 26H117.461Z" fill="white"/>
</svg>
