<svg width="50" height="50" viewBox="0 0 50 50" fill="none" xmlns="http://www.w3.org/2000/svg">
<path d="M40.5805 17.3715L25.6173 8.5577C25.4987 8.48344 25.3504 8.48345 25.2318 8.54285C23.3706 9.51557 8.85978 17.1042 9.1193 17.2527L23.9638 25.9997C24.6682 26.4155 25.5358 26.4229 26.2476 26.0294L40.5805 18.0695C40.8548 17.921 40.8622 17.5275 40.5879 17.3641L40.5805 17.3715Z" fill="url(#paint0_linear_312_88)"/>
<path d="M42.3007 25.4205L36.8731 22.2202C36.747 22.1459 36.5913 22.1459 36.4652 22.2202L27.7083 27.3585C26.1364 28.2792 24.1788 28.2792 22.6069 27.3585L13.8203 22.1831C13.7017 22.1088 13.546 22.1088 13.4199 22.1831L8.10346 25.0789C7.82911 25.2274 7.82171 25.621 8.08864 25.7844L23.8081 35.0437C24.557 35.4818 25.4764 35.4966 26.2328 35.0734L42.2933 26.1333C42.5677 25.9848 42.5676 25.5913 42.3007 25.4279V25.4205Z" fill="url(#paint1_linear_312_88)"/>
<path d="M41.9077 34.5388L36.4801 31.3384C36.354 31.2642 36.1983 31.2642 36.0722 31.3384L27.3153 36.4768C25.7434 37.3975 23.7859 37.3975 22.2139 36.4768L13.4273 31.3013C13.3087 31.2271 13.153 31.2271 13.0269 31.3013L7.71048 34.1972C7.43613 34.3457 7.42872 34.7392 7.69566 34.9026L23.4151 44.1619C24.164 44.6 25.0835 44.6149 25.8398 44.1916L41.9003 35.2516C42.1747 35.1031 42.1747 34.7095 41.9077 34.5462V34.5388Z" fill="url(#paint2_linear_312_88)"/>
<defs>
<linearGradient id="paint0_linear_312_88" x1="15.0723" y1="20.1449" x2="33.9066" y2="43.9873" gradientUnits="userSpaceOnUse">
<stop stop-color="#03A350"/>
<stop offset="1" stop-color="#2D5131"/>
</linearGradient>
<linearGradient id="paint1_linear_312_88" x1="15.0723" y1="20.1449" x2="33.9066" y2="43.9873" gradientUnits="userSpaceOnUse">
<stop stop-color="#03A350"/>
<stop offset="1" stop-color="#2D5131"/>
</linearGradient>
<linearGradient id="paint2_linear_312_88" x1="15.0723" y1="20.1449" x2="33.9066" y2="43.9873" gradientUnits="userSpaceOnUse">
<stop stop-color="#03A350"/>
<stop offset="1" stop-color="#2D5131"/>
</linearGradient>
</defs>
</svg>
