<svg width="50" height="50" viewBox="0 0 50 50" fill="none" xmlns="http://www.w3.org/2000/svg">
<path d="M7.51732 38.5344C7.76825 41.8734 10.5717 44.5 14.0068 44.5H28.3702C24.2256 40.4056 17.5977 33.2725 15.1922 30.8948C10.7361 35.3498 8.59891 37.4871 7.51732 38.5344Z" fill="url(#paint0_linear_312_100)"/>
<path d="M40.034 10.9292C38.4506 9.36697 36.348 8.5 34.1156 8.5C31.8832 8.5 29.7807 9.35838 28.1972 10.9292C26.6138 12.5 25.7398 14.5773 25.7398 16.7918C25.7398 17.6588 25.8783 18.5172 26.1465 19.3412C26.4148 20.1652 26.8128 20.9378 27.3233 21.6331L27.4358 21.8219C28.0674 23.1695 30.819 26.7661 32.835 29.3927C33.3023 30.0021 33.7349 30.5687 34.1243 31.0837C34.5569 30.5172 35.0328 29.8906 35.5347 29.2296C37.5334 26.6288 40.0254 23.3841 40.8301 21.779L40.9253 21.6245C41.4358 20.9206 41.8251 20.1566 42.0933 19.3326C42.3616 18.5086 42.5 17.6502 42.5 16.7918C42.5 14.5773 41.6261 12.5 40.0427 10.9292H40.034ZM36.7201 19.5815C36.0538 20.2425 35.1366 20.6459 34.1156 20.6459C33.0946 20.6459 32.1774 20.2339 31.5025 19.573C30.8362 18.912 30.4296 18.0022 30.4296 16.9893C30.4296 15.9764 30.8449 15.0665 31.5112 14.4056C32.1774 13.7446 33.1033 13.3326 34.1156 13.3326C35.128 13.3326 36.0625 13.7446 36.7287 14.4056C37.395 15.0665 37.8103 15.985 37.8103 16.9893C37.8103 17.9936 37.395 18.9206 36.7287 19.5815H36.7201Z" fill="url(#paint1_linear_312_100)"/>
<path d="M12.1725 10.9464C9.59397 10.9464 7.5 13.0236 7.5 15.5815V35.3498C8.86712 33.9936 11.0216 31.8476 14.3788 28.4828C16.3776 26.4828 19.9771 23.0579 23.8103 19.4442C23.5766 18.5773 23.4555 17.6846 23.4555 16.7833C23.4555 14.6717 24.0785 12.6631 25.238 10.9464H12.1725Z" fill="url(#paint2_linear_312_100)"/>
<path d="M35.0414 33.6502L34.1156 34.9378L33.1897 33.6502C32.6792 32.9464 31.9092 31.9335 31.0093 30.7575C28.751 27.8133 26.207 24.4743 25.411 22.8691C25.1514 22.5086 24.9178 22.1223 24.7102 21.7275C21.6212 24.6459 18.7398 27.3841 16.8103 29.2811C19.5791 32.0193 28.0847 41.0408 31.5717 44.4914H37.3863C39.9735 44.4914 42.0587 42.4142 42.0587 39.8562V24.1652C40.8906 25.9764 39.0303 28.397 37.343 30.5944C36.4518 31.7532 35.6211 32.8434 35.0414 33.6416V33.6502Z" fill="url(#paint3_linear_312_100)"/>
<defs>
<linearGradient id="paint0_linear_312_100" x1="15.0723" y1="20.1449" x2="33.9066" y2="43.9873" gradientUnits="userSpaceOnUse">
<stop stop-color="#03A350"/>
<stop offset="1" stop-color="#2D5131"/>
</linearGradient>
<linearGradient id="paint1_linear_312_100" x1="15.0723" y1="20.1449" x2="33.9066" y2="43.9873" gradientUnits="userSpaceOnUse">
<stop stop-color="#03A350"/>
<stop offset="1" stop-color="#2D5131"/>
</linearGradient>
<linearGradient id="paint2_linear_312_100" x1="15.0723" y1="20.1449" x2="33.9066" y2="43.9873" gradientUnits="userSpaceOnUse">
<stop stop-color="#03A350"/>
<stop offset="1" stop-color="#2D5131"/>
</linearGradient>
<linearGradient id="paint3_linear_312_100" x1="15.0723" y1="20.1449" x2="33.9066" y2="43.9873" gradientUnits="userSpaceOnUse">
<stop stop-color="#03A350"/>
<stop offset="1" stop-color="#2D5131"/>
</linearGradient>
</defs>
</svg>
