<svg width="50" height="50" viewBox="0 0 50 50" fill="none" xmlns="http://www.w3.org/2000/svg">
<path d="M41.2643 8.5H18.956C17.9956 8.5 17.2202 9.299 17.2202 10.2686V32.9998C17.2202 33.9783 18.0044 34.7683 18.956 34.7683H41.2643C42.2247 34.7683 43 33.9693 43 32.9998V10.2686C43 9.29003 42.2247 8.5 41.2643 8.5ZM37.978 22.1549L36.0484 22.2446C35.9427 22.2446 35.8546 22.1638 35.8458 22.0561L35.6608 17.9803C35.6608 17.8097 35.4493 17.7289 35.3348 17.8546L22.9031 30.5219C22.8238 30.6027 22.7092 30.6027 22.63 30.5219L21.2643 29.1304C21.185 29.0496 21.185 28.9329 21.2643 28.8521L33.6784 16.2028C33.7929 16.086 33.7225 15.8796 33.5551 15.8706L29.881 15.5474C29.7753 15.5384 29.6961 15.4397 29.7049 15.3319L29.8723 13.3748C29.8811 13.2671 29.978 13.1863 30.0837 13.1953L36.3304 13.7429C37.1674 13.8147 37.8282 14.515 37.8634 15.3679L38.1542 21.9484C38.1542 22.0561 38.0749 22.1459 37.9691 22.1549H37.978Z" fill="url(#paint0_linear_312_94)"/>
<path d="M14.8943 32.9998V27.4157H9.89866C8.29514 27.4157 7 28.7354 7 30.3693V41.5464C7 43.1803 8.29514 44.5 9.89866 44.5H20.8678C22.4714 44.5 23.7665 43.1803 23.7665 41.5464V37.1384H18.956C16.7181 37.1384 14.9031 35.289 14.9031 33.0087L14.8943 32.9998Z" fill="url(#paint1_linear_312_94)"/>
<defs>
<linearGradient id="paint0_linear_312_94" x1="14.7887" y1="20.1449" x2="33.4936" y2="44.5" gradientUnits="userSpaceOnUse">
<stop stop-color="#03A350"/>
<stop offset="1" stop-color="#2D5131"/>
</linearGradient>
<linearGradient id="paint1_linear_312_94" x1="14.7887" y1="20.1449" x2="33.4936" y2="44.5" gradientUnits="userSpaceOnUse">
<stop stop-color="#03A350"/>
<stop offset="1" stop-color="#2D5131"/>
</linearGradient>
</defs>
</svg>
