<svg width="50" height="50" viewBox="0 0 50 50" fill="none" xmlns="http://www.w3.org/2000/svg">
<path d="M39.782 14.0483C39.7139 13.4448 39.222 12.9771 38.6167 12.9243C31.7081 12.3133 27.3193 9.80127 25.7 8.71499C25.2762 8.42834 24.7238 8.42834 24.3001 8.71499C22.6808 9.80882 18.292 12.3209 11.3834 12.9243C10.7705 12.9771 10.2861 13.4448 10.218 14.0483C9.71863 18.6348 8.75764 37.0488 24.459 44.3812C24.7995 44.5396 25.2005 44.5396 25.541 44.3812C41.2424 37.0413 40.2814 18.6348 39.782 14.0483ZM25.5486 39.0328C25.3746 39.1158 25.1854 39.1535 24.9962 39.1535C24.8071 39.1535 24.6179 39.1158 24.4514 39.0328C21.7273 37.7579 12.9573 32.4774 14.5388 18.0012C14.6069 17.3901 15.0987 16.9149 15.7192 16.8546C20.3274 16.4472 23.2483 14.7725 24.2849 14.0634C24.7087 13.7768 25.2989 13.7768 25.7226 14.0634C26.7593 14.765 29.6801 16.4397 34.2884 16.847C34.9089 16.8998 35.4007 17.3826 35.4688 17.9936C37.0503 32.4698 28.2803 37.7504 25.5562 39.0252L25.5486 39.0328Z" fill="url(#paint0_linear_312_82)"/>
<path d="M33.7058 18.6198C29.2942 18.1521 26.328 16.5981 25.0038 15.7683C23.6796 16.6056 20.7134 18.1521 16.3019 18.6198C15.0987 31.2101 22.363 35.9852 25.0038 37.2902C27.6447 35.9852 34.9089 31.2101 33.7058 18.6198ZM29.5742 22.8442L22.885 29.7164C22.8018 29.8069 22.6581 29.8069 22.5748 29.7164L19.5632 26.6084C19.48 26.5255 19.48 26.3821 19.5632 26.2992L20.8798 25.0318C20.9631 24.9489 21.1068 24.9489 21.1901 25.0318L22.5748 26.4651C22.6581 26.5556 22.8018 26.5556 22.885 26.4651L27.9398 21.2676C28.023 21.1846 28.1592 21.1771 28.25 21.2676L29.5666 22.5424C29.6499 22.6254 29.6574 22.7612 29.5666 22.8517L29.5742 22.8442Z" fill="url(#paint1_linear_312_82)"/>
<defs>
<linearGradient id="paint0_linear_312_82" x1="16.4906" y1="20.1449" x2="35.7865" y2="41.0821" gradientUnits="userSpaceOnUse">
<stop stop-color="#03A350"/>
<stop offset="1" stop-color="#2D5131"/>
</linearGradient>
<linearGradient id="paint1_linear_312_82" x1="16.4906" y1="20.1449" x2="35.7865" y2="41.0821" gradientUnits="userSpaceOnUse">
<stop stop-color="#03A350"/>
<stop offset="1" stop-color="#2D5131"/>
</linearGradient>
</defs>
</svg>
